<?xml version="1.0" encoding="UTF-8" standalone="no"?>
<svg
   xmlns:dc="http://purl.org/dc/elements/1.1/"
   xmlns:cc="http://creativecommons.org/ns#"
   xmlns:rdf="http://www.w3.org/1999/02/22-rdf-syntax-ns#"
   xmlns:svg="http://www.w3.org/2000/svg"
   xmlns="http://www.w3.org/2000/svg"
   xmlns:xlink="http://www.w3.org/1999/xlink"
   xmlns:sodipodi="http://sodipodi.sourceforge.net/DTD/sodipodi-0.dtd"
   xmlns:inkscape="http://www.inkscape.org/namespaces/inkscape"
   xml:space="preserve"
   width="238"
   height="250"
   viewBox="0 0 600 300"
   id="svg2"
   version="1.1"
   inkscape:version="0.91 r13725"
   sodipodi:docname="EuroKaracháyevo-Cherkesia.svg"><metadata
     id="metadata52"><rdf:RDF><cc:Work
         rdf:about=""><dc:format>image/svg+xml</dc:format><dc:type
           rdf:resource="http://purl.org/dc/dcmitype/StillImage" /></cc:Work></rdf:RDF></metadata><sodipodi:namedview
     pagecolor="#ffffff"
     bordercolor="#666666"
     borderopacity="1"
     objecttolerance="10"
     gridtolerance="10"
     guidetolerance="10"
     inkscape:pageopacity="0"
     inkscape:pageshadow="2"
     inkscape:window-width="1366"
     inkscape:window-height="705"
     id="namedview50"
     showgrid="false"
     inkscape:zoom="8.2686517"
     inkscape:cx="106.09543"
     inkscape:cy="149.69601"
     inkscape:window-x="-8"
     inkscape:window-y="-8"
     inkscape:window-maximized="1"
     inkscape:current-layer="svg2" /><defs
     id="defs4"><path
       id="big"
       fill="#FFB000"
       d="M 0,-23 C 2,-37 3,-44 0,-44 C -3,-44 -2,-37 0,-23 Z" /><path
       id="small"
       fill="#FFB000"
       d="M 0,-23 C 1,-33 1.5,-37 0,-37 C -1.5,-37 -1,-33 0,-23 Z" /></defs><clipPath
     id="mid"><circle
       cx="300"
       cy="150"
       r="49"
       id="circle9" /></clipPath><path
     d="M 88.235292,240.75709 453.7815,205.4629 274.78991,437.39614 Z"
     id="path42"
     inkscape:connector-curvature="0"
     style="fill:#e02010;fill-opacity:1" /><path
     d="M 555.16385,21.204548 473.94957,207.98391 80.672267,243.2781 37.815125,66.807161 Z"
     id="path44"
     inkscape:connector-curvature="0"
     style="fill:#007030;fill-opacity:1" /><path
     d="M 73.109242,-28.991351 181.5126,-81.932633 272.2689,-18.907297 375.63024,-119.74784 521.84873,-132.3529 569.74788,23.949932 32.773108,71.849188 Z"
     id="path46"
     inkscape:connector-curvature="0"
     style="fill:#0090d0;fill-opacity:1" /><path
     d="M 63.037813,115.89381 C 64.550417,-19.716542 135.12352,-62.160325 173.5563,-62.160325 c 53.67227,0 75.83949,40.974032 79.46218,59.1152451 3.62017,18.1260869 23.93445,32.6244349 30.46135,2.89160246 6.53192,-29.73283356 69.6731,-120.39856256 147.27731,-120.39856256 71.07226,0 95.68738,73.293425 93.55713,135.633047 C 518.49831,184.79059 299.87395,320.23708 271.09663,405.76246 245.4731,353.96319 61.23025,279.08658 63.037813,115.89381 l 0,0 z M 456.14621,-162.60504 c -63.82437,0 -139.30588,47.13788 -184.99411,125.473337 -12.32774,-28.290814 -56.25126,-59.120287 -108.46386,-59.120287 -42.07312,0 -160.1672317,52.583298 -160.1672317,222.29792 0,219.02565 221.5991517,264.01314 266.3974717,332.09059 3.07815,4.68151 12.99328,8.2185 16.77731,-2.96724 35.74538,-105.4918 312.92016,-224.68533 312.92016,-439.359701 -0.003,-120.393529 -78.6479,-178.414619 -142.46974,-178.414619 z"
     id="path48"
     inkscape:connector-curvature="0" /><ellipse
     cx="267.29901"
     cy="162.06677"
     id="circle17"
     style="opacity:1;fill:#ffb000"
     rx="35.12133"
     ry="34.987747"
     transform="matrix(0.99619468,-0.08715592,0,1,0,0)" /><path
     clip-path="url(#mid)"
     d="m 300,145 c -15,-15 -78,40 -78,40 l 169,4 c 0,0 -68,-62 -90,-44 z"
     id="path19"
     inkscape:connector-curvature="0"
     transform="matrix(1.7493839,-0.15305158,0,1.7493874,-258.53329,-77.722606)"
     style="opacity:1;fill:#ffffff" /><path
     clip-path="url(#mid)"
     d="m 301,162 c -20,-18 -38,16 -60,4 11,50 125,55 115,-2 -18,2 -35,-25 -55,-2 z"
     id="path21"
     inkscape:connector-curvature="0"
     transform="matrix(1.7493839,-0.15305158,0,1.7493874,-258.53329,-77.722606)"
     style="opacity:1;fill:#007030" /><ellipse
     cx="267.29901"
     cy="162.06677"
     id="circle23"
     style="opacity:1;fill:none;stroke:#ffb000;stroke-width:7.01089382"
     rx="84.291199"
     ry="83.970604"
     transform="matrix(0.99619468,-0.08715592,0,1,0,0)" /><g
     id="L"
     transform="matrix(1.7493839,-0.15305158,0,1.7493874,-258.53329,-77.722606)"
     style="opacity:1"><use
       transform="matrix(0.25881905,-0.96592583,0.96592583,0.25881905,300,150)"
       xlink:href="#small"
       id="use26"
       x="0"
       y="0"
       width="100%"
       height="100%" /><use
       transform="matrix(0.43837115,-0.89879405,0.89879405,0.43837115,300,150)"
       xlink:href="#big"
       id="use28"
       x="0"
       y="0"
       width="100%"
       height="100%" /><use
       transform="matrix(0.5591929,-0.82903757,0.82903757,0.5591929,300,150)"
       xlink:href="#big"
       id="use30"
       x="0"
       y="0"
       width="100%"
       height="100%" /></g><use
     transform="matrix(0.82228107,0.50382815,-0.499999,0.90976973,116.70821,-121.63909)"
     xlink:href="#L"
     id="use32"
     x="0"
     y="0"
     width="100%"
     height="100%"
     style="opacity:1" /><use
     transform="matrix(0.4242326,0.87265596,-0.86602367,0.5757674,273.49463,-173.50173)"
     xlink:href="#L"
     id="use34"
     x="0"
     y="0"
     width="100%"
     height="100%"
     style="opacity:1" /><use
     transform="matrix(-0.08748866,1.0076563,-0.99999798,0.08748866,428.34841,-141.69139)"
     xlink:href="#L"
     id="use36"
     x="0"
     y="0"
     width="100%"
     height="100%"
     style="opacity:1" /><use
     transform="matrix(-0.5757674,0.87265596,-0.86602367,-0.4242326,539.77663,-34.731687)"
     xlink:href="#L"
     id="use38"
     x="0"
     y="0"
     width="100%"
     height="100%"
     style="opacity:1" /><use
     transform="matrix(0.45277391,1.6501659,-1.6897751,0.60061129,266.28187,138.77004)"
     xlink:href="#small"
     id="use40"
     x="0"
     y="0"
     width="100%"
     height="100%"
     style="opacity:1" /></svg>